name Walk5.mot
datacolumns 19
datarows 12
range 1.03900000 1.05000000
endheader

                time	   L_ground_force_vx	   L_ground_force_vy	   L_ground_force_vz	   L_ground_force_px	   L_ground_force_py	   L_ground_force_pz	   R_ground_force_vx	   R_ground_force_vy	   R_ground_force_vz	   R_ground_force_px	   R_ground_force_py	   R_ground_force_pz	   L_ground_torque_x	   L_ground_torque_y	   L_ground_torque_z	   R_ground_torque_x	   R_ground_torque_y	   R_ground_torque_z	
          1.03900000	          7.83629053	        718.62491871	         32.54340165	         -0.36053770	          0.00000000	         -0.04279897	         -0.01659547	          0.19646721	          0.00783208	          0.00011581	          0.00000000	          0.00009274	          0.00000000	         -1.98510327	          0.00000000	          0.00000000	         -0.00160996	          0.00000000	
          1.04000000	          8.19107711	        720.31069367	         32.66845891	         -0.36015039	          0.00000000	         -0.04277331	         -0.01794595	          0.20699989	          0.00830915	          0.00011963	          0.00000000	          0.00009565	          0.00000000	         -2.00189199	          0.00000000	          0.00000000	         -0.00163015	          0.00000000	
          1.04100000	          8.55040755	        722.01220969	         32.79698090	         -0.35976653	          0.00000000	         -0.04274759	         -0.01934780	          0.21765642	          0.00879624	          0.00012330	          0.00000000	          0.00009844	          0.00000000	         -2.01791409	          0.00000000	          0.00000000	         -0.00164548	          0.00000000	
          1.04200000	          8.91456472	        723.72927007	         32.92883672	         -0.35938622	          0.00000000	         -0.04272178	         -0.02080001	          0.22840432	          0.00929226	          0.00012680	          0.00000000	          0.00010108	          0.00000000	         -2.03316706	          0.00000000	          0.00000000	         -0.00165543	          0.00000000	
          1.04300000	          9.28383599	        725.46166519	         33.06387598	         -0.35900953	          0.00000000	         -0.04269584	         -0.02230127	          0.23920768	          0.00979600	          0.00013011	          0.00000000	          0.00010355	          0.00000000	         -2.04765060	          0.00000000	          0.00000000	         -0.00165948	          0.00000000	
          1.04400000	          9.65851237	        727.20916963	         33.20192770	         -0.35863656	          0.00000000	         -0.04266973	         -0.02384994	          0.25002703	          0.01030610	          0.00013319	          0.00000000	          0.00010582	          0.00000000	         -2.06136737	          0.00000000	          0.00000000	         -0.00165705	          0.00000000	
          1.04500000	         10.03888696	        728.97153913	         33.34279940	         -0.35826739	          0.00000000	         -0.04264343	         -0.02544401	          0.26081918	          0.01082103	          0.00013600	          0.00000000	          0.00010787	          0.00000000	         -2.07432360	          0.00000000	          0.00000000	         -0.00164755	          0.00000000	
          1.04600000	         10.42525322	        730.74850809	         33.48627648	         -0.35790210	          0.00000000	         -0.04261689	         -0.02708113	          0.27153703	          0.01133912	          0.00013851	          0.00000000	          0.00010966	          0.00000000	         -2.08652948	          0.00000000	          0.00000000	         -0.00163036	          0.00000000	
          1.04700000	         10.81790312	        732.53978821	         33.63212225	         -0.35754079	          0.00000000	         -0.04259008	         -0.02875854	          0.28212942	          0.01185852	          0.00014069	          0.00000000	          0.00011116	          0.00000000	         -2.09799943	          0.00000000	          0.00000000	         -0.00160485	          0.00000000	
          1.04800000	         11.21712565	        734.34506800	         33.78007840	         -0.35718353	          0.00000000	         -0.04256298	         -0.03047306	          0.29254094	          0.01237721	          0.00014248	          0.00000000	          0.00011234	          0.00000000	         -2.10875206	          0.00000000	          0.00000000	         -0.00157033	          0.00000000	
          1.04900000	         11.62320562	        736.16401266	         33.92986598	         -0.35683040	          0.00000000	         -0.04253556	         -0.03222104	          0.30271178	          0.01289299	          0.00014385	          0.00000000	          0.00011317	          0.00000000	         -2.11880994	          0.00000000	          0.00000000	         -0.00152612	          0.00000000	
          1.05000000	         12.03642262	        737.99626377	         34.08118657	         -0.35648149	          0.00000000	         -0.04250778	         -0.03399838	          0.31257757	          0.01340345	          0.00014476	          0.00000000	          0.00011361	          0.00000000	         -2.12819905	          0.00000000	          0.00000000	         -0.00147150	          0.00000000	
